<svg xmlns="http://www.w3.org/2000/svg" viewBox="0 0 512 512"><linearGradient id="a" gradientUnits="userSpaceOnUse" x1="256" y1="20.824" x2="256" y2="498.654"><stop offset="0" stop-color="#005b99"/><stop offset="1" stop-color="#e11c34"/></linearGradient><path d="M256 5L38.627 130.498v251.003l7.199 4.159L256 507l217.373-125.498V130.498L256 5zm174.138 133.816l-55.747 32.187L303 65.413l127.138 73.403zm-87.315 36.973H169.177L256 47.363l86.823 128.426zM209.007 65.413l-71.39 105.597-55.754-32.187 127.144-73.41zM67.45 163.776l55.761 32.188L67.45 310.596v-146.82zm75.676 57.127l86.83 150.381-154.631-10.978 67.801-139.403zm98.462 244.493l-127.159-73.417 127.159 9.035v64.382zm-74.585-260.791h177.994L256 358.758l-88.997-154.153zm103.409 260.791v-64.382l127.166-9.035-127.166 73.417zm11.639-94.113l86.822-150.381 67.809 139.403-154.631 10.978zm162.499-60.68l-55.761-114.64 55.754-32.188h.007v146.828z" fill="url(#a)"/></svg>